<?xml version="1.0" encoding="utf-8"?>
<!-- Generator: Adobe Illustrator 25.0.0, SVG Export Plug-In . SVG Version: 6.00 Build 0)  -->
<svg version="1.1" id="Calque_1" xmlns="http://www.w3.org/2000/svg" xmlns:xlink="http://www.w3.org/1999/xlink" x="0px" y="0px"
	 viewBox="0 0 320 320.1" style="enable-background:new 0 0 320 320.1;" xml:space="preserve">
<style type="text/css">
	.st0{fill:#FFFFFF;}
</style>
<g>
	<line class="st0" x1="6.2" y1="6.2" x2="313.8" y2="313.9"/>
	<path d="M313.8,320.2c-1.6,0-3.2-0.6-4.4-1.8L1.8,10.7c-2.4-2.4-2.4-6.4,0-8.8c2.4-2.4,6.4-2.4,8.8,0l307.7,307.7
		c2.4,2.4,2.4,6.4,0,8.8C317,319.5,315.4,320.2,313.8,320.2z"/>
</g>
<g>
	<line class="st0" x1="313.8" y1="6.2" x2="6.2" y2="313.9"/>
	<path d="M6.2,320.2c-1.6,0-3.2-0.6-4.4-1.8c-2.4-2.4-2.4-6.4,0-8.8L309.3,1.8c2.4-2.4,6.4-2.4,8.8,0c2.4,2.4,2.4,6.4,0,8.8
		L10.7,318.3C9.4,319.5,7.8,320.2,6.2,320.2z"/>
</g>
</svg>
