<?xml version="1.0" encoding="utf-8"?>
<!-- Generator: Adobe Illustrator 25.0.0, SVG Export Plug-In . SVG Version: 6.00 Build 0)  -->
<svg version="1.1" id="Calque_1" xmlns="http://www.w3.org/2000/svg" xmlns:xlink="http://www.w3.org/1999/xlink" x="0px" y="0px"
	 viewBox="0 0 448 384" style="enable-background:new 0 0 448 384;" xml:space="preserve">
<style type="text/css">
	.st0{fill:#FFFFFF;}
</style>
<g>
	<g>
		<line class="st0" x1="6.2" y1="32" x2="441.7" y2="32"/>
		<path d="M441.7,38.5H6.2c-3.5,0-6.3-2.9-6.3-6.5s2.8-6.5,6.3-6.5h435.5c3.5,0,6.3,2.9,6.3,6.5S445.2,38.5,441.7,38.5z"/>
	</g>
	<g>
		<line class="st0" x1="6.2" y1="192" x2="441.7" y2="192"/>
		<path d="M441.7,198.5H6.2c-3.5,0-6.3-2.9-6.3-6.5s2.8-6.5,6.3-6.5h435.5c3.5,0,6.3,2.9,6.3,6.5S445.2,198.5,441.7,198.5z"/>
	</g>
	<g>
		<line class="st0" x1="6.2" y1="352" x2="441.7" y2="352"/>
		<path d="M441.7,358.5H6.2c-3.5,0-6.3-2.9-6.3-6.5s2.8-6.5,6.3-6.5h435.5c3.5,0,6.3,2.9,6.3,6.5S445.2,358.5,441.7,358.5z"/>
	</g>
</g>
</svg>
